<?xml version="1.0" encoding="UTF-8" standalone="no"?>
<!DOCTYPE svg PUBLIC "-//W3C//DTD SVG 1.1//EN" "http://www.w3.org/Graphics/SVG/1.1/DTD/svg11.dtd">
<svg width="100%" height="100%" viewBox="0 0 941 743" version="1.1" xmlns="http://www.w3.org/2000/svg" xmlns:xlink="http://www.w3.org/1999/xlink" xml:space="preserve" xmlns:serif="http://www.serif.com/" style="fill-rule:evenodd;clip-rule:evenodd;stroke-linecap:round;stroke-linejoin:round;stroke-miterlimit:1.5;">
    <g transform="matrix(-1,-1.22465e-16,1.22465e-16,-1,2799.45,3125.28)">
        <g transform="matrix(1,0,0,2.21185,-63.0935,-1492.23)">
            <path d="M2859,1909.39C2859,1909.39 2844.47,1903.97 2845.29,1897.85C2846.27,1890.5 2863.54,1881.94 2876.73,1877.79C2887.86,1874.29 2874.29,1866.62 2859,1862.59C2848.99,1859.95 2828.05,1863.63 2822.99,1860.11C2811.78,1852.31 2821.13,1850.02 2831.55,1834.14C2837.63,1824.88 2810.37,1821.49 2808.54,1815.29C2801.14,1790.1 2749.54,1818.11 2739.73,1830C2708.24,1868.15 2645.36,1837.22 2630.6,1835.91C2452.35,1820.22 2564.24,1852.56 2548.64,1866.51C2521.16,1891.07 2562.33,1869.63 2510.3,1852.11C2489.77,1845.2 2468.19,1825.3 2418.9,1812.5C2398.8,1807.28 2368.23,1780.72 2357.74,1790.75C2355.76,1792.63 2366.87,1802.94 2360.87,1812.5C2355.07,1821.74 2387.34,1823.98 2380.74,1828.99C2374.62,1833.65 2354.8,1830.05 2336.64,1823.26C2324.96,1818.89 2313.97,1809.44 2307.77,1812.5C2284.16,1824.13 2292.3,1881.51 2281.73,1884.01C2260.12,1889.1 2227.86,1887.58 2208.87,1890.34C2133.37,1901.32 2077.89,1820.72 2079.59,1831.37C2083.72,1857.35 2073.87,1834.76 2063.09,1831.57C2039.99,1824.72 2015.32,1842.97 1990.57,1836.99C1953.15,1827.95 1911.91,1844.81 1968.58,1884.18C1980.72,1892.61 1969.22,1902.97 1968.76,1905.31C1967.36,1912.4 1999.48,1932.56 2017.87,1932.56L2825.09,1932.56C2843.49,1932.56 2858.42,1915.63 2858.42,1907.32L2859,1909.39Z" style="fill:rgb(100,192,93);"/>
        </g>
        <g transform="matrix(-1.20707,-5.71996,6.22299,-1.31323,-6573.74,17437.8)">
            <g transform="matrix(1,0,0,1,-0.5485,0.420265)">
                <path d="M2165.17,1824.76C2174.28,1824.35 2197.86,1841.24 2198.12,1861.64C2198.35,1880.04 2191.43,1891.63 2171.74,1891.63C2152.05,1891.63 2136.06,1876.67 2136.06,1858.24C2136.06,1839.82 2140.76,1825.85 2165.17,1824.76Z" style="fill:rgb(170,230,161);stroke:rgb(70,127,62);stroke-width:2.39px;"/>
            </g>
            <g transform="matrix(1,0,0,1,2.28002,4.32889)">
                <path d="M2152.56,1834.71C2154.94,1834.71 2158,1835.94 2158.95,1840.06C2159.64,1843.01 2162.62,1847.44 2160.23,1847.44C2157.85,1847.44 2151.42,1843.48 2150.46,1840.6C2149.47,1837.62 2150.18,1834.71 2152.56,1834.71Z" style="fill:rgb(191,246,182);"/>
            </g>
            <g transform="matrix(0.468686,0.795825,-0.795826,0.468687,2626.43,-734.917)">
                <path d="M2152.17,1834.94C2154.56,1834.94 2157.26,1834.95 2159.11,1839.03C2160.8,1842.78 2162.93,1851.31 2160.23,1847.44C2158.87,1845.49 2151.42,1843.48 2150.46,1840.6C2149.47,1837.62 2149.79,1834.94 2152.17,1834.94Z" style="fill:rgb(191,246,182);"/>
            </g>
            <g transform="matrix(-0.411781,0.911283,-0.911283,-0.411781,4746.68,647.01)">
                <path d="M2151.66,1837.75C2153.81,1836.73 2155.98,1837.2 2157.9,1840.97C2159.28,1843.67 2162.62,1847.44 2160.23,1847.44C2157.85,1847.44 2152.6,1844.99 2151.41,1842.19C2151.04,1841.34 2149.5,1838.79 2151.66,1837.75Z" style="fill:rgb(191,246,182);"/>
            </g>
            <g transform="matrix(-0.923729,0.383045,-0.383045,-0.923729,4876.95,2740.41)">
                <path d="M2153.28,1836.04C2155.66,1836.04 2155.72,1836.42 2157.12,1839.55C2158.37,1842.32 2164.23,1848.39 2161.85,1848.39C2159.47,1848.39 2151.94,1844.73 2150.99,1841.85C2150,1838.88 2150.9,1836.04 2153.28,1836.04Z" style="fill:rgb(191,246,182);"/>
            </g>
            <g transform="matrix(-0.768719,-0.639586,0.639586,-0.768719,2650.34,4669.24)">
                <path d="M2152.56,1834.71C2154.94,1834.71 2158,1835.94 2158.95,1840.06C2159.64,1843.01 2164.94,1848.39 2162.56,1848.39C2160.17,1848.39 2151.42,1843.48 2150.46,1840.6C2149.47,1837.62 2150.18,1834.71 2152.56,1834.71Z" style="fill:rgb(191,246,182);"/>
            </g>
            <g transform="matrix(-0.203843,-0.979004,0.979004,-0.203843,793.524,4355.78)">
                <path d="M2152.95,1833.46C2155.33,1833.46 2158,1835.94 2158.95,1840.06C2159.64,1843.01 2162.97,1849.1 2160.59,1849.1C2158.21,1849.1 2152.03,1844.01 2150.38,1841.47C2148.43,1838.49 2150.57,1833.46 2152.95,1833.46Z" style="fill:rgb(191,246,182);stroke:rgb(170,230,161);stroke-width:0.4px;"/>
            </g>
            <g transform="matrix(0.718415,-0.695615,0.695615,0.718415,-679.702,2033.71)">
                <path d="M2152.56,1834.71C2154.94,1834.71 2158.59,1834.97 2159.54,1839.08C2160.23,1842.04 2164.59,1848.97 2162.21,1848.97C2161.06,1848.97 2158.72,1847.08 2155.85,1846.19C2151.87,1844.94 2149.84,1843.09 2149.35,1841.59C2148.36,1838.62 2150.18,1834.71 2152.56,1834.71Z" style="fill:rgb(191,246,182);"/>
            </g>
        </g>
        <g transform="matrix(-0.566484,6.85083,-7.32265,-0.605498,16972.5,-14771.6)">
            <g transform="matrix(0.690229,0,0,1.1459,862.048,-253.149)">
                <path d="M2724.88,1771.3C2724.88,1763.79 2712.73,1750.62 2693.3,1744.53C2693.3,1744.53 2686.7,1742.76 2683.38,1742.14C2672.41,1740.1 2629.07,1741.17 2629.07,1748.68C2635.74,1748.47 2642.77,1749.09 2650.23,1749.73C2662.52,1750.79 2675.49,1752.87 2686.43,1758.6C2690.03,1760.48 2692.46,1763.63 2695.68,1766.16C2719.03,1800.11 2642.28,1820.03 2653.23,1821.25C2658.9,1821.87 2673.3,1820.16 2678.93,1818.42C2687.39,1815.79 2693.94,1813.26 2699.43,1810.27C2703.25,1808.2 2706.3,1805.9 2710.2,1803.19C2716.91,1798.52 2719.76,1795.11 2722.46,1790.59C2725.93,1784.77 2726.43,1778.76 2724.88,1771.3Z" style="fill:rgb(238,212,237);"/>
            </g>
            <g transform="matrix(0.690229,0,0,1.1459,862.048,-253.149)">
                <path d="M2724.88,1771.3C2724.88,1763.79 2712.73,1750.62 2693.3,1744.53C2693.3,1744.53 2686.7,1742.76 2683.38,1742.14C2672.41,1740.1 2629.07,1741.17 2629.07,1748.68C2643.02,1746.02 2666.18,1744.06 2685.25,1748.72C2696.56,1751.48 2706.05,1757.14 2712.38,1764.82C2730.23,1801.38 2641.28,1820.5 2653.23,1821.25C2658.92,1821.6 2673.3,1820.16 2678.93,1818.42C2687.39,1815.79 2693.94,1813.26 2699.43,1810.27C2703.25,1808.2 2706.3,1805.9 2710.2,1803.19C2716.91,1798.52 2719.76,1795.11 2722.46,1790.59C2725.93,1784.77 2726.43,1778.76 2724.88,1771.3Z" style="fill:rgb(194,104,190);"/>
            </g>
        </g>
        <g transform="matrix(5.47413,-3.16049,2.68067,4.64305,-14228.6,741.658)">
            <path d="M2112.08,1793.75C2111.5,1793.35 2111.07,1793.41 2110.45,1793.33C2095.66,1791.28 2083.5,1797.39 2074.32,1805.53C2058.32,1819.74 2056.14,1849.74 2070.47,1865.17C2072.31,1867.15 2075.18,1871.82 2084.06,1876.86C2089.22,1879.78 2096.61,1881.49 2106.97,1881.5C2108.33,1881.5 2110.08,1881.4 2111,1880.99C2111,1880.99 2111.72,1880.5 2111.66,1879.36C2111.22,1871.59 2109.98,1842.49 2109.98,1829.28C2109.98,1819.02 2111.17,1799.12 2112.32,1794.69C2112.53,1793.92 2112.08,1793.75 2112.08,1793.75Z" style="fill:rgb(231,69,90);"/>
            <g transform="matrix(0.915969,0,0,0.917881,177.5,151.082)">
                <path d="M2111.74,1793.73C2096.09,1790.87 2083.89,1797.04 2074.32,1805.53C2058.32,1819.74 2056.14,1849.74 2070.47,1865.17C2072.31,1867.15 2075.18,1871.82 2084.06,1876.86C2089.89,1880.16 2109.46,1882.04 2111.04,1881.4C2111.04,1881.4 2111.59,1880.95 2111.56,1880.25C2111.28,1874.09 2109.76,1843.55 2109.76,1829.82C2109.76,1818.17 2111.74,1793.73 2111.74,1793.73Z" style="fill:rgb(238,100,112);"/>
            </g>
            <g transform="matrix(0.625979,0,0,0.660599,789.492,623.514)">
                <path d="M2107.67,1794.23C2106.92,1793.42 2105.95,1793.1 2104.77,1792.92C2097.35,1791.8 2082.62,1798.09 2074.32,1805.53C2058.39,1819.82 2056.14,1849.74 2070.47,1865.17C2072.31,1867.15 2075.18,1871.82 2084.06,1876.86C2089.89,1880.16 2106.34,1883.4 2107.47,1879C2107.69,1878.67 2107.44,1877.28 2106.2,1875.45C2101.74,1868.82 2094.6,1851.34 2093.38,1839.61C2092.17,1827.93 2099.09,1812.77 2106.73,1802.66C2108.75,1799.99 2108.86,1797.42 2108.5,1795.87C2108.24,1794.74 2107.67,1794.23 2107.67,1794.23Z" style="fill:rgb(230,69,90);"/>
            </g>
            <g transform="matrix(1.30367,0.98867,-0.834672,1.12541,910.765,-2310.04)">
                <path d="M2097.83,1853.22C2099.17,1853.22 2099.47,1856.11 2099.91,1858.28C2100.32,1860.32 2098.82,1862.05 2097.48,1862.05C2096.14,1862.05 2094.61,1860.31 2095.06,1858.28C2095.53,1856.1 2096.49,1853.22 2097.83,1853.22Z" style="fill:rgb(246,171,94);"/>
            </g>
            <g transform="matrix(0.713982,1.49545,-1.43867,0.634078,3264.93,-2471.12)">
                <path d="M2097.83,1853.22C2099.17,1853.22 2099.47,1856.11 2099.91,1858.28C2100.32,1860.32 2098.82,1862.05 2097.48,1862.05C2096.14,1862.05 2094.61,1860.31 2095.06,1858.28C2095.53,1856.1 2096.49,1853.22 2097.83,1853.22Z" style="fill:rgb(246,171,94);"/>
            </g>
            <g transform="matrix(-0.105441,1.55164,-1.5511,-0.153422,5192.29,-1137.79)">
                <path d="M2097.83,1853.22C2099.17,1853.22 2099.47,1856.11 2099.91,1858.28C2100.32,1860.32 2098.82,1862.05 2097.48,1862.05C2096.14,1862.05 2094.61,1860.31 2095.06,1858.28C2095.53,1856.1 2096.49,1853.22 2097.83,1853.22Z" style="fill:rgb(246,171,94);"/>
            </g>
            <g transform="matrix(-1.15664,0.666015,-0.782161,-1.33797,5974.24,2910.8)">
                <path d="M2097.83,1853.22C2099.17,1853.22 2099.47,1856.11 2099.91,1858.28C2100.32,1860.32 2098.82,1862.05 2097.48,1862.05C2096.14,1862.05 2094.61,1860.31 2095.06,1858.28C2095.53,1856.1 2096.49,1853.22 2097.83,1853.22Z" style="fill:rgb(246,171,94);"/>
            </g>
        </g>
        <g transform="matrix(1,0,0,0.661451,0,953.071)">
            <path d="M2795.86,2712.89C2795.86,2694.07 2794.09,2699.33 2781.64,2699.33C2772.76,2703.37 2730.68,2826.02 2705.34,2806.24C2695.97,2798.93 2747.21,2773.05 2752.74,2736.92C2753.86,2729.6 2771.08,2705.6 2776.01,2702.03C2827.09,2665.03 2713.76,2673.97 2708.61,2648.41C2702.52,2618.12 2716.56,2559.59 2716.53,2546.73C2716.47,2525.32 2685.62,2535.88 2685.32,2524.63C2684.94,2510.51 2684.37,2498.77 2683.51,2487.18C2681.64,2461.82 2678.99,2440.62 2675.89,2424.09C2674.38,2416.09 2671.43,2398.48 2671.95,2402.36C2674.33,2420.31 2677.57,2483.31 2667.47,2563.31C2645.52,2737.14 2587.69,2818.07 2561.18,2780C2548.26,2761.43 2527,2798.17 2546.54,2765.48C2552.82,2754.98 2473.68,2926.78 2471.11,2932.77C2463.55,2950.37 2536.12,2791.31 2534.03,2789.99C2531.67,2788.5 2464.62,2789.28 2481.21,2785.65C2489.35,2783.88 2478.87,2777.38 2487.17,2771.28C2499.11,2762.5 2479.06,2762.78 2504.46,2765.48C2508.34,2765.89 2517.23,2763.76 2525.32,2753.68C2533.99,2742.87 2543.58,2729.38 2551.35,2716.02C2554.28,2710.98 2557.36,2706.38 2559.6,2701.34C2562.59,2694.58 2567.36,2686.24 2570.23,2678.79C2571.82,2674.65 2574.87,2668.11 2574.87,2668.11C2574.87,2668.11 2580.12,2635.73 2577.32,2636.33C2560.83,2639.85 2582.02,2575.26 2584.17,2556.26C2588.49,2518.18 2597.06,2488.58 2591.36,2464.17C2590.55,2505.78 2583.69,2545.93 2577.44,2568.14C2577.44,2568.14 2572.01,2589.29 2564.36,2611.08C2557.94,2629.34 2548.23,2646.94 2543.69,2657.48C2539.52,2667.18 2521.81,2693.26 2521.81,2693.26L2497.15,2696.12L2209.45,2377.75C2209.45,2377.75 2210.21,2375.74 2209.23,2377.85C2208.24,2379.98 2206.32,2384.55 2206.32,2384.55C2206.32,2384.55 2208.03,2389.79 2209.58,2394.32C2219.95,2424.58 2243.58,2487.4 2268.71,2548.83C2293.03,2608.26 2319.48,2665.95 2333.54,2699.8C2334.74,2702.69 2353.47,2745.24 2353.47,2745.24C2354,2746.86 2307.22,2748.76 2256.84,2747.65C2209.43,2746.61 2158.24,2741.7 2141.13,2737.96C2078.21,2724.2 2000.36,2703.03 2000,2701.77L1960.75,2665.29L1956.42,2644.36L1952.86,2613.78C1952.86,2613.78 1936.1,2643.93 1943.64,2678.79C1944.94,2684.84 1933.06,2681.14 1921.81,2678.79C1915.22,2677.41 1908.84,2675.73 1905.48,2678.79C1900.61,2683.25 1917.86,2705.5 1914.65,2720.59C1905.03,2765.8 1921.56,2815.16 1928.03,2815.16L2773.31,2815.16C2762.45,2813.84 2771.32,2799.65 2771.32,2780.84L2795.86,2712.89Z" style="fill:rgb(26,75,82);fill-opacity:0.31;"/>
        </g>
        <g transform="matrix(1,-1.11022e-16,1.11022e-16,1,-63.0935,849.743)">
            <path d="M2836.17,1975.85C2847.49,1953.94 2861.89,1900.86 2858.42,1875.22C2858.42,1875.22 2839.61,1881.66 2807.51,1890.21C2773.08,1899.39 2723.36,1910.99 2665.22,1919.64C2594.75,1930.13 2510.87,1932.75 2430.05,1932.56C2356.52,1932.38 2245.35,1932.38 2153.86,1919.1C2049.33,1903.92 1968.71,1875.22 1968.71,1875.22C1966.74,1926.12 1986.33,1964.96 2000,2002.25C2011.44,2033.43 2053.89,2101.31 2053.89,2101.31C2128.28,2191.82 2158.6,2244.88 2223.55,2265.24C2281.57,2283.43 2364.81,2288.51 2433.71,2287.17C2495.84,2285.96 2531.53,2280.65 2583.51,2265.24C2642.35,2247.81 2698.6,2191.08 2760.69,2109.47C2798.95,2059.18 2812.43,2021.81 2836.17,1975.85Z" style="fill:rgb(157,237,248);"/>
            <g>
                <clipPath id="_clip1">
                    <path d="M2836.17,1975.85C2847.49,1953.94 2861.89,1900.86 2858.42,1875.22C2858.42,1875.22 2839.61,1881.66 2807.51,1890.21C2773.08,1899.39 2723.36,1910.99 2665.22,1919.64C2594.75,1930.13 2510.87,1932.75 2430.05,1932.56C2356.52,1932.38 2245.35,1932.38 2153.86,1919.1C2049.33,1903.92 1968.71,1875.22 1968.71,1875.22C1966.74,1926.12 1986.33,1964.96 2000,2002.25C2011.44,2033.43 2053.89,2101.31 2053.89,2101.31C2128.28,2191.82 2158.6,2244.88 2223.55,2265.24C2281.57,2283.43 2364.81,2288.51 2433.71,2287.17C2495.84,2285.96 2531.53,2280.65 2583.51,2265.24C2642.35,2247.81 2698.6,2191.08 2760.69,2109.47C2798.95,2059.18 2812.43,2021.81 2836.17,1975.85Z"/>
                </clipPath>
                <g clip-path="url(#_clip1)">
                    <g transform="matrix(1.0051,-0.336951,0.397085,1.18448,-1418.3,-642.322)">
                        <path d="M2438.63,3173.66C2348.21,3140.36 2252.7,3122.72 2387.31,3152.53C2440.68,3164.35 2623.12,3162.86 2741.86,3090.23C2833.75,3034.03 2867.6,2978.83 2925.83,2944.76C2970.13,2918.84 3051.96,2928.23 3095.08,2934.14C3330.91,2966.48 3074.8,3328.57 3074.8,3328.57L2471.12,3340.16L2438.63,3173.66Z" style="fill:rgb(39,187,207);"/>
                    </g>
                </g>
            </g>
        </g>
    </g>
</svg>
