<?xml version="1.0" encoding="UTF-8" standalone="no"?>
<!DOCTYPE svg PUBLIC "-//W3C//DTD SVG 1.1//EN" "http://www.w3.org/Graphics/SVG/1.1/DTD/svg11.dtd">
<svg width="100%" height="100%" viewBox="0 0 32 32" version="1.1" xmlns="http://www.w3.org/2000/svg" xmlns:xlink="http://www.w3.org/1999/xlink" xml:space="preserve" xmlns:serif="http://www.serif.com/" style="fill-rule:evenodd;clip-rule:evenodd;stroke-linejoin:round;stroke-miterlimit:2;">
    <g id="invisible_box">
        <rect id="Rectangle_9" x="0" y="0" width="32" height="32" style="fill:none;"/>
    </g>
    <g transform="matrix(1,0,0,1,-1.331,-0.677)">
        <g id="icons_Q2">
            <path id="Path_7" d="M26.757,11.421C26.157,11.292 25.532,11.338 24.957,11.554C24.355,10.592 23.292,10.009 22.157,10.019L21.289,10.152C20.841,8.881 19.636,8.024 18.289,8.016L17.622,8.016L17.622,5.482C17.623,5.447 17.624,5.411 17.624,5.376C17.624,3.545 16.117,2.039 14.287,2.039C14.107,2.039 13.928,2.053 13.751,2.082C12.192,2.425 11.074,3.823 11.082,5.419L11.082,15.296L9.482,13.696C8.87,13.062 8.027,12.701 7.146,12.696C6.283,12.695 5.459,13.059 4.877,13.696C4.323,14.213 4.009,14.938 4.009,15.696C4.052,16.648 4.352,17.57 4.877,18.365C5.677,19.833 10.55,28.242 12.018,30.711C12.242,31.127 12.681,31.385 13.153,31.378L25.689,31.378C26.311,31.398 26.868,30.98 27.024,30.378L29.293,21.569C29.347,21.443 29.37,21.306 29.36,21.169L29.36,14.829C29.382,13.234 28.302,11.819 26.757,11.421ZM24.757,28.705L13.877,28.705C12.077,25.705 7.871,18.361 7.137,17.026C7.07,16.893 6.403,15.826 6.67,15.558L7.137,15.358C7.311,15.367 7.477,15.438 7.604,15.558L11.475,19.558C11.717,19.765 12.024,19.878 12.342,19.878C13.044,19.878 13.633,19.325 13.675,18.624L13.675,5.348C13.675,4.982 13.976,4.68 14.343,4.68C14.709,4.68 15.01,4.982 15.01,5.348L15.01,14.691C15.009,14.713 15.008,14.736 15.008,14.758C15.008,15.454 15.581,16.026 16.276,16.026C16.277,16.026 16.277,16.026 16.278,16.026C17.01,16.026 17.613,15.423 17.613,14.691L17.613,11.355C17.612,11.343 17.612,11.331 17.612,11.319C17.612,10.971 17.899,10.684 18.247,10.684C18.595,10.684 18.882,10.971 18.882,11.319C18.882,11.331 18.882,11.343 18.881,11.355L18.881,15.355C18.881,16.087 19.484,16.69 20.216,16.69C20.948,16.69 21.551,16.087 21.551,15.355L21.551,13.355C21.549,13.334 21.548,13.314 21.548,13.293C21.548,12.944 21.836,12.656 22.185,12.656C22.534,12.656 22.822,12.944 22.822,13.293C22.822,13.314 22.821,13.334 22.819,13.355L22.819,16.692C22.819,17.424 23.422,18.027 24.154,18.027C24.155,18.027 24.155,18.027 24.156,18.027C24.851,18.027 25.424,17.455 25.424,16.759C25.424,16.737 25.423,16.714 25.422,16.692L25.422,14.692C25.422,14.326 25.723,14.025 26.09,14.025C26.456,14.025 26.757,14.326 26.757,14.692L26.757,21.032C26.767,21.169 26.744,21.306 26.69,21.432L24.757,28.705Z" style="fill-rule:nonzero;"/>
        </g>
    </g>
</svg>
